<?xml version="1.0" encoding="UTF-8" standalone="no"?>
<svg width="55px" height="55px" viewBox="0 0 55 55" version="1.1" xmlns="http://www.w3.org/2000/svg" xmlns:xlink="http://www.w3.org/1999/xlink">
    <!-- Generator: Sketch 3.8.3 (29802) - http://www.bohemiancoding.com/sketch -->
    <title>Group 3</title>
    <desc>Created with Sketch.</desc>
    <defs></defs>
    <g id="Page-1" stroke="none" stroke-width="1" fill="none" fill-rule="evenodd">
        <g id="Design" transform="translate(-414.000000, -2137.000000)">
            <g id="Group-3" transform="translate(416.000000, 2139.000000)">
                <g id="Page-1">
                    <path d="M25.9433,21.8077 C22.8913,21.8077 20.4123,24.2077 20.4123,27.1677 C20.4123,30.1257 22.8913,32.5307 25.9433,32.5307 C29.0003,32.5307 31.4793,30.1257 31.4793,27.1677 C31.4793,24.2077 29.0003,21.8077 25.9433,21.8077 L25.9433,21.8077 Z M36.5753,25.1037 L34.1503,25.1037 C34.3823,25.8537 34.5073,26.6447 34.5073,27.4657 C34.5073,32.0477 30.6723,35.7637 25.9433,35.7637 C21.2193,35.7637 17.3863,32.0477 17.3863,27.4657 C17.3863,26.6447 17.5113,25.8537 17.7403,25.1037 L15.2103,25.1037 L15.2103,36.7367 C15.2103,37.3417 15.7043,37.8307 16.3053,37.8307 L35.4813,37.8307 C36.0863,37.8307 36.5753,37.3417 36.5753,36.7367 L36.5753,25.1037 Z M32.2113,16.5157 C31.5313,16.5157 30.9733,17.0777 30.9733,17.7587 L30.9733,20.7237 C30.9733,21.4097 31.5313,21.9657 32.2113,21.9657 L35.3223,21.9657 C36.0053,21.9657 36.5613,21.4097 36.5613,20.7237 L36.5613,17.7587 C36.5613,17.0777 36.0053,16.5157 35.3223,16.5157 L32.2113,16.5157 Z M15.6863,13.4577 L36.1533,13.4577 C38.0983,13.4577 39.6893,15.0497 39.6893,16.9937 L39.6893,37.4627 C39.6893,39.4087 38.0983,40.9967 36.1533,40.9967 L15.6863,40.9967 C13.7413,40.9967 12.1503,39.4087 12.1503,37.4627 L12.1503,16.9937 C12.1503,15.0497 13.7413,13.4577 15.6863,13.4577 L15.6863,13.4577 Z" id="Fill-1" fill="#D22B6B"></path>
                    <path d="M25.3984,0 C11.3714,0 0.0004,11.372 0.0004,25.398 C0.0004,39.428 11.3714,50.797 25.3984,50.797 C39.4234,50.797 50.7974,39.428 50.7974,25.398 C50.7974,11.372 39.4234,0 25.3984,0 L25.3984,0 Z" id="Stroke-3" stroke="#D91B55" stroke-width="3"></path>
                </g>
            </g>
        </g>
    </g>
</svg>