<?xml version="1.0" encoding="UTF-8" standalone="no"?>
<svg width="55px" height="55px" viewBox="0 0 55 55" version="1.1" xmlns="http://www.w3.org/2000/svg" xmlns:xlink="http://www.w3.org/1999/xlink">
    <!-- Generator: Sketch 3.8.3 (29802) - http://www.bohemiancoding.com/sketch -->
    <title>Group 5</title>
    <desc>Created with Sketch.</desc>
    <defs></defs>
    <g id="Page-1" stroke="none" stroke-width="1" fill="none" fill-rule="evenodd">
        <g id="Design" transform="translate(-270.000000, -2137.000000)">
            <g id="Group-5" transform="translate(272.000000, 2139.000000)">
                <g id="Page-1">
                    <path d="M25.4004,0 C11.3754,0 0.0004,11.371 0.0004,25.399 C0.0004,39.428 11.3754,50.797 25.4004,50.797 C39.4284,50.797 50.7994,39.428 50.7994,25.399 C50.7994,11.371 39.4284,0 25.4004,0 L25.4004,0 Z" id="Stroke-1" stroke="#D91B55" stroke-width="3"></path>
                    <path d="M27.3594,32.6406 C25.7834,32.6406 24.3024,31.7916 23.7954,30.8236 C23.7954,30.8236 22.9464,34.1846 22.7694,34.8336 C22.1364,37.1266 20.2774,39.4216 20.1344,39.6076 C20.0354,39.7386 19.8114,39.6976 19.7884,39.5236 C19.7494,39.2326 19.2724,36.3396 19.8324,33.9806 C20.1114,32.7956 21.7094,26.0306 21.7094,26.0306 C21.7094,26.0306 21.2414,25.1016 21.2414,23.7246 C21.2414,21.5606 22.4964,19.9476 24.0584,19.9476 C25.3844,19.9476 26.0234,20.9436 26.0234,22.1366 C26.0234,23.4696 25.1734,25.4666 24.7364,27.3146 C24.3714,28.8626 25.5124,30.1226 27.0394,30.1226 C29.8014,30.1226 31.6634,26.5736 31.6634,22.3696 C31.6634,19.1696 29.5094,16.7766 25.5934,16.7766 C21.1704,16.7766 18.4104,20.0776 18.4104,23.7636 C18.4104,25.0366 18.7854,25.9316 19.3744,26.6226 C19.6444,26.9436 19.6814,27.0736 19.5824,27.4376 C19.5114,27.7046 19.3534,28.3536 19.2854,28.6076 C19.1894,28.9796 18.8894,29.1096 18.5564,28.9726 C16.5174,28.1426 15.5684,25.9096 15.5684,23.3996 C15.5684,19.2586 19.0614,14.2866 25.9944,14.2866 C31.5644,14.2866 35.2334,18.3166 35.2334,22.6456 C35.2334,28.3656 32.0484,32.6406 27.3594,32.6406" id="Fill-3" fill="#D7246A"></path>
                </g>
            </g>
        </g>
    </g>
</svg>