<?xml version="1.0" encoding="UTF-8" standalone="no"?>
<svg width="55px" height="55px" viewBox="0 0 55 55" version="1.1" xmlns="http://www.w3.org/2000/svg" xmlns:xlink="http://www.w3.org/1999/xlink">
    <!-- Generator: Sketch 3.8.3 (29802) - http://www.bohemiancoding.com/sketch -->
    <title>Group 7</title>
    <desc>Created with Sketch.</desc>
    <defs></defs>
    <g id="Page-1" stroke="none" stroke-width="1" fill="none" fill-rule="evenodd">
        <g id="Design" transform="translate(-122.000000, -2137.000000)">
            <g id="Group-7" transform="translate(124.000000, 2139.000000)">
                <g id="Page-1">
                    <path d="M25.3989,0 C11.3729,0 -0.0001,11.371 -0.0001,25.399 C-0.0001,39.428 11.3729,50.797 25.3989,50.797 C39.4249,50.797 50.7969,39.428 50.7969,25.399 C50.7969,11.371 39.4249,0 25.3989,0 L25.3989,0 Z" id="Stroke-1" stroke="#D91B55" stroke-width="3"></path>
                    <path d="M30.8374,25.4111 L27.2774,25.4111 L27.2774,38.0991 L22.0044,38.0991 L22.0044,25.4111 L19.4964,25.4111 L19.4964,20.9241 L22.0044,20.9241 L22.0044,18.0221 C22.0044,15.9451 22.9894,12.6991 27.3244,12.6991 L31.2304,12.7151 L31.2304,17.0681 L28.3974,17.0681 C27.9344,17.0681 27.2774,17.2971 27.2774,18.2891 L27.2774,20.9241 L31.2984,20.9241 L30.8374,25.4111 Z" id="Fill-3" fill="#D7246A"></path>
                </g>
            </g>
        </g>
    </g>
</svg>