<?xml version="1.0" encoding="UTF-8" standalone="no"?>
<svg width="26px" height="24px" viewBox="0 0 26 24" version="1.1" xmlns="http://www.w3.org/2000/svg" xmlns:xlink="http://www.w3.org/1999/xlink">
    <!-- Generator: Sketch 3.8.3 (29802) - http://www.bohemiancoding.com/sketch -->
    <title>Page 1</title>
    <desc>Created with Sketch.</desc>
    <defs></defs>
    <g id="Page-1" stroke="none" stroke-width="1" fill="none" fill-rule="evenodd">
        <g id="Design" transform="translate(-53.000000, -28.000000)" stroke-width="3" stroke="#FEFEFE">
            <g id="Section-One">
                <g id="Page-1" transform="translate(54.000000, 29.000000)">
                    <path d="M5.0164,13.159 C5.2344,13.721 5.8484,15.395 6.2994,17.501 C6.8574,20.105 8.3244,20.663 8.3244,20.663 C8.3244,20.663 10.2974,21.117 10.7314,20.529 C10.7314,20.529 11.0264,20.125 10.7004,19.118 C10.7004,19.118 10.5604,18.297 10.9024,17.863 C10.9024,17.863 11.6614,17.351 12.0644,18.297 C12.0644,18.297 12.2504,18.916 11.9864,19.459 C11.9864,19.459 11.3204,21.52 14.4974,20.869 C14.4974,20.869 15.3654,20.42 15.6904,19.521 C15.6904,19.521 17.4424,13.849 17.6584,13.601 C17.8754,13.353 18.3714,12.161 19.5024,12.067 C19.5024,12.067 21.0214,11.866 21.3154,11.897 C21.6104,11.928 22.2304,12.067 22.5244,11.323 C22.8184,10.579 22.3854,9.774 21.7964,9.324 C21.2064,8.875 19.1464,8.534 19.1464,8.534 C19.1464,8.534 18.1704,8.425 17.9064,7.96 C17.6434,7.496 15.0864,3.683 13.0714,3.111 C11.0564,2.537 9.3054,3.373 7.7404,4.613 C6.1754,5.853 5.8194,6.798 5.7104,6.922 C5.6024,7.046 5.0284,7.666 4.6724,7.79 C4.3154,7.914 2.4974,8.823 2.4974,8.823 C2.4974,8.823 -0.1676,10.001 0.6594,11.613 C0.6594,11.613 0.9894,12.378 2.0634,12.356 C2.9014,12.34 3.5754,12.199 3.8324,12.137" id="Stroke-1"></path>
                    <path d="M3.8323,12.137 C3.9053,12.12 3.9433,12.109 3.9433,12.109 C3.9433,12.109 4.8733,12.232 4.9363,12.955 C4.9363,12.955 4.9653,13.026 5.0163,13.159" id="Stroke-3"></path>
                    <path d="M5.5247,7.1082 C5.5247,7.1082 4.9667,5.6832 3.7427,6.4412 C2.5187,7.2012 2.9827,8.4882 2.9677,8.5962" id="Stroke-5"></path>
                    <path d="M7.5545,4.7374 C7.5545,4.7374 6.8575,3.6214 5.8965,4.1174 C4.9355,4.6134 5.1225,5.2334 5.1225,5.3724 C5.1225,5.5124 5.2605,6.1634 5.8035,6.7364" id="Stroke-7"></path>
                    <path d="M9.5847,3.4202 C9.5847,3.4202 9.5537,1.7312 7.8337,2.1342 C7.8337,2.1342 6.9657,2.5212 7.2917,3.6992 C7.2917,3.6992 7.3217,4.2252 7.9737,4.4122" id="Stroke-9"></path>
                    <path d="M10.6692,3.0789 C10.6692,3.0789 9.5692,1.3739 11.5372,0.5379 C11.5372,0.5379 13.5212,0.1039 13.3502,2.1729 C13.3502,2.1729 13.3422,2.4979 13.1182,3.1179" id="Stroke-11"></path>
                </g>
            </g>
        </g>
    </g>
</svg>