<?xml version="1.0" encoding="UTF-8" standalone="no"?>
<svg width="123px" height="116px" viewBox="0 0 123 116" version="1.1" xmlns="http://www.w3.org/2000/svg" xmlns:xlink="http://www.w3.org/1999/xlink">
    <!-- Generator: Sketch 3.8.3 (29802) - http://www.bohemiancoding.com/sketch -->
    <title>Group 2</title>
    <desc>Created with Sketch.</desc>
    <defs></defs>
    <g id="Page-1" stroke="none" stroke-width="1" fill="none" fill-rule="evenodd">
        <g id="Design" transform="translate(-320.000000, -1307.000000)" stroke-width="9.345024" stroke="#C42A52">
            <g id="Group-2" transform="translate(325.000000, 1312.000000)">
                <g id="Page-1">
                    <path d="M23.2729984,65.3019859 C24.3813863,68.1883035 27.5009273,76.7811624 29.796124,87.5956565 C32.6310038,100.961009 40.0908563,103.825504 40.0908563,103.825504 C40.0908563,103.825504 50.1225393,106.157504 52.328818,103.13588 C52.328818,103.13588 53.8256049,101.066386 52.171359,95.89608 C52.171359,95.89608 51.4618672,91.6791506 53.1951514,89.45128 C53.1951514,89.45128 57.055676,86.8255976 59.1044956,91.6791506 C59.1044956,91.6791506 60.0498672,94.8603976 58.7099219,97.6463271 C58.7099219,97.6463271 55.3217743,108.226998 71.4752169,104.885504 C71.4752169,104.885504 75.8865393,102.578445 77.5407852,97.9643271 C77.5407852,97.9643271 86.4443208,68.8461271 87.5471514,67.57288 C88.6493645,66.30088 91.1705612,60.1747035 96.9224464,59.6958329 C96.9224464,59.6958329 104.643496,58.6626447 106.139665,58.8222682 C107.636452,58.9806447 110.789337,59.6958329 112.284272,55.8779624 C113.782911,52.0588447 111.57725,47.9217271 108.581823,45.6152918 C105.588867,43.3076094 95.1107415,41.5561153 95.1107415,41.5561153 C95.1107415,41.5561153 90.1473863,41.0005506 88.807441,38.6143035 C87.4674956,36.2280565 74.4675557,16.6560918 64.2240749,13.7124094 C53.9830639,10.7681035 45.0801459,15.0635976 37.1232169,21.4285859 C29.1656705,27.7941976 27.3533481,32.6471271 26.8013153,33.2825035 C26.248665,33.9185035 23.334747,37.1016212 21.5224246,37.7388682 C19.7113372,38.3742447 10.4663317,43.0426094 10.4663317,43.0426094 C10.4663317,43.0426094 -3.0850235,49.0889741 1.11697104,57.3632094 C1.11697104,57.3632094 2.79653388,61.2883271 8.26005301,61.1823271 C12.5194738,61.0987741 15.9471404,60.3717388 17.2525066,60.0549859" id="Stroke-1"></path>
                    <path d="M17.2525066,60.0549235 C17.6199109,59.9657588 17.819359,59.9096412 17.819359,59.9096412 C17.819359,59.9096412 22.5455995,60.5456412 22.8623699,64.2575118 C22.8623699,64.2575118 23.0118016,64.6210294 23.2729984,65.3019235" id="Stroke-3"></path>
                    <path d="M25.8563142,34.2378129 C25.8563142,34.2378129 23.0201995,26.9188247 16.7959372,30.8165071 C10.5729098,34.7154365 12.9347951,41.3192365 12.8557568,41.8760482" id="Stroke-5"></path>
                    <path d="M36.1769191,22.0656459 C36.1769191,22.0656459 32.6313126,16.3366576 27.7469956,18.8831518 C22.8626787,21.4290224 23.8086678,24.6115165 23.8086678,25.3279518 C23.8086678,26.0443871 24.5163071,29.3858812 27.2752361,32.32894" id="Stroke-7"></path>
                    <path d="M46.4980798,15.3030329 C46.4980798,15.3030329 46.3400033,6.63160941 37.5945443,8.69923294 C37.5945443,8.69923294 33.1826044,10.6876682 34.8387027,16.7359035 C34.8387027,16.7359035 34.9961617,19.4407741 38.305271,20.3953976" id="Stroke-9"></path>
                    <path d="M52.012665,13.5532847 C52.012665,13.5532847 46.4194738,4.80204941 56.4264574,0.506555294 C56.4264574,0.506555294 66.5112443,-1.72193882 65.6430585,8.89863765 C65.6430585,8.89863765 65.6035393,10.57032 64.4611896,13.7515671" id="Stroke-11"></path>
                </g>
            </g>
        </g>
    </g>
</svg>