<?xml version="1.0" encoding="UTF-8" standalone="no"?>
<svg width="55px" height="55px" viewBox="0 0 55 55" version="1.1" xmlns="http://www.w3.org/2000/svg" xmlns:xlink="http://www.w3.org/1999/xlink">
    <!-- Generator: Sketch 3.8.3 (29802) - http://www.bohemiancoding.com/sketch -->
    <title>Group 6</title>
    <desc>Created with Sketch.</desc>
    <defs></defs>
    <g id="Page-1" stroke="none" stroke-width="1" fill="none" fill-rule="evenodd">
        <g id="Design" transform="translate(-197.000000, -2137.000000)">
            <g id="Group-6" transform="translate(199.000000, 2139.000000)">
                <g id="Page-1">
                    <path d="M25.3989,0 C11.3729,0 -0.0001,11.371 -0.0001,25.399 C-0.0001,39.428 11.3729,50.797 25.3989,50.797 C39.4249,50.797 50.7979,39.428 50.7979,25.399 C50.7979,11.371 39.4249,0 25.3989,0 L25.3989,0 Z" id="Stroke-1" stroke="#D91B55" stroke-width="3"></path>
                    <path d="M37.0859,21.8086 C37.0959,22.0326 37.1019,22.2546 37.1019,22.4806 C37.1019,29.3636 31.8599,37.3046 22.2759,37.3046 C19.3319,37.3046 16.5939,36.4426 14.2879,34.9626 C14.6969,35.0096 15.1109,35.0336 15.5299,35.0336 C17.9729,35.0336 20.2189,34.2056 22.0009,32.8046 C19.7229,32.7616 17.7969,31.2556 17.1339,29.1876 C17.4519,29.2456 17.7769,29.2806 18.1149,29.2806 C18.5899,29.2806 19.0509,29.2146 19.4869,29.0966 C17.1059,28.6206 15.3079,26.5136 15.3079,23.9906 L15.3079,23.9256 C16.0119,24.3166 16.8139,24.5486 17.6679,24.5766 C16.2699,23.6446 15.3509,22.0466 15.3509,20.2396 C15.3509,19.2856 15.6089,18.3906 16.0559,17.6186 C18.6249,20.7716 22.4669,22.8476 26.7949,23.0636 C26.7079,22.6836 26.6609,22.2856 26.6609,21.8756 C26.6609,18.9976 28.9939,16.6696 31.8729,16.6696 C33.3699,16.6696 34.7249,17.3006 35.6759,18.3106 C36.8619,18.0786 37.9779,17.6446 38.9859,17.0456 C38.5949,18.2636 37.7709,19.2856 36.6939,19.9296 C37.7469,19.8056 38.7519,19.5236 39.6859,19.1106 C38.9889,20.1546 38.1039,21.0746 37.0859,21.8086" id="Fill-3" fill="#D7246A"></path>
                </g>
            </g>
        </g>
    </g>
</svg>