<?xml version="1.0" encoding="UTF-8" standalone="no"?>
<svg width="55px" height="55px" viewBox="0 0 55 55" version="1.1" xmlns="http://www.w3.org/2000/svg" xmlns:xlink="http://www.w3.org/1999/xlink">
    <!-- Generator: Sketch 3.8.3 (29802) - http://www.bohemiancoding.com/sketch -->
    <title>Group 4</title>
    <desc>Created with Sketch.</desc>
    <defs></defs>
    <g id="Page-1" stroke="none" stroke-width="1" fill="none" fill-rule="evenodd">
        <g id="Design" transform="translate(-340.000000, -2136.000000)">
            <g id="Group-4" transform="translate(342.000000, 2138.000000)">
                <g id="Page-1">
                    <path d="M22.626,30.3624 L22.626,20.9994 L31.628,25.6994 L22.626,30.3624 Z M42.396,19.3774 C42.396,19.3774 42.069,17.0834 41.072,16.0734 C39.804,14.7454 38.383,14.7374 37.731,14.6594 C33.07,14.3234 26.076,14.3234 26.076,14.3234 L26.06,14.3234 C26.06,14.3234 19.063,14.3234 14.402,14.6594 C13.752,14.7374 12.33,14.7454 11.066,16.0734 C10.064,17.0834 9.739,19.3774 9.739,19.3774 C9.739,19.3774 9.408,22.0764 9.408,24.7724 L9.408,27.2974 C9.408,29.9964 9.739,32.6914 9.739,32.6914 C9.739,32.6914 10.064,34.9874 11.066,35.9984 C12.33,37.3264 13.996,37.2844 14.736,37.4244 C17.402,37.6784 26.068,37.7554 26.068,37.7554 C26.068,37.7554 33.07,37.7484 37.731,37.4094 C38.383,37.3314 39.804,37.3264 41.072,35.9984 C42.069,34.9874 42.396,32.6914 42.396,32.6914 C42.396,32.6914 42.728,29.9964 42.728,27.2974 L42.728,24.7724 C42.728,22.0764 42.396,19.3774 42.396,19.3774 L42.396,19.3774 Z" id="Fill-1" fill="#D22B6B"></path>
                    <path d="M25.3994,0 C11.3714,0 0.0004,11.372 0.0004,25.398 C0.0004,39.428 11.3714,50.797 25.3994,50.797 C39.4234,50.797 50.7974,39.428 50.7974,25.398 C50.7974,11.372 39.4234,0 25.3994,0 L25.3994,0 Z" id="Stroke-3" stroke="#D91B55" stroke-width="3"></path>
                </g>
            </g>
        </g>
    </g>
</svg>